<?xml version="1.0" encoding="UTF-8" standalone="no"?>
<svg
   version="1.1"
   viewBox="0 0 250 250"
   width="250.0pt"
   height="250.0pt"
   id="svg9"
   sodipodi:docname="RVC-Logo-Mark-Blue-cutout.svg"
   inkscape:version="1.4.2 (f4327f4, 2025-05-13)"
   xmlns:inkscape="http://www.inkscape.org/namespaces/inkscape"
   xmlns:sodipodi="http://sodipodi.sourceforge.net/DTD/sodipodi-0.dtd"
   xmlns="http://www.w3.org/2000/svg"
   xmlns:svg="http://www.w3.org/2000/svg">
  <defs
     id="defs9" />
  <style>
    #combined-path {
      fill: #003866;
    }
    @media (prefers-color-scheme: dark) {
      #combined-path {
        fill: #FFD12F;
      }
    }
  </style>
  <sodipodi:namedview
     id="namedview9"
     pagecolor="#ffffff"
     bordercolor="#111111"
     borderopacity="1"
     inkscape:showpageshadow="0"
     inkscape:pageopacity="0"
     inkscape:pagecheckerboard="1"
     inkscape:deskcolor="#d1d1d1"
     inkscape:document-units="pt"
     inkscape:zoom="5.445"
     inkscape:cx="166.57484"
     inkscape:cy="151.97429"
     inkscape:window-width="3840"
     inkscape:window-height="2054"
     inkscape:window-x="2869"
     inkscape:window-y="-11"
     inkscape:window-maximized="1"
     inkscape:current-layer="svg9" />
  <path
     d="m 120.87,0 h 8.5 l 1.93,0.15 c 22.85,1.16 45.21,8.5 64.1,21.46 22.88,15.6 40.42,38.75 48.79,65.19 3.38,10.25 5.17,21.09 5.81,31.85 v 13.61 c -1.42,23.55 -9.34,46.45 -23.16,65.6 -15.34,21.34 -37.27,37.77 -62.3,45.95 -10.64,3.63 -21.93,5.55 -33.13,6.19 H 118.44 C 96.63,248.83 75.26,242.02 56.98,230.03 32.93,214.38 14.45,190.44 5.88,163 2.19,151.82 0.57,140.3 0,128.56 v -7.85 C 0.81,105.04 3.99,89.62 10.34,75.23 21.33,49.85 40.97,28.46 65.23,15.22 82.32,5.79 101.41,0.88 120.87,0 Z m 26.18,19.59 c 18.91,3.92 36.81,13.12 50.94,26.29 -24.73,-10.84 -54.22,-9.09 -77.46,4.67 -19.41,11.22 -34.08,30.24 -39.87,51.91 -8.33,29.35 0.58,62.25 22.29,83.59 13.09,13.24 30.57,21.94 49.01,24.46 15.38,2.26 31.8,0.06 46.01,-6.28 C 175.14,225.79 142.81,235.99 111.71,232 92.56,229.69 74.13,221.96 58.95,210.08 40.84,195.98 27.37,176.11 21.27,153.96 12.34,122.5 18.75,87.53 38.3,61.32 52.19,42.38 72.35,28.19 94.92,21.65 111.76,16.68 129.87,16 147.05,19.59 Z m 16.95,36.64 c 13.73,-0.21 27.52,4.21 38.81,11.99 12.82,8.8 22.58,21.9 27.05,36.82 2.77,8.64 3.34,17.6 2.69,26.61 -1.49,16.01 -8.82,31.34 -20.36,42.55 -11.66,11.6 -27.75,18.89 -44.21,19.66 -14.44,0.98 -28.99,-2.87 -41.17,-10.66 10.6,1.14 21.05,0.8 31,-3.39 14.18,-5.6 25.94,-17.19 31.68,-31.32 4.77,-11.19 5.48,-24.14 2.6,-35.92 -3.26,-12.47 -10.73,-23.88 -21.12,-31.55 -11.49,-8.77 -26.47,-12.78 -40.8,-11.11 -3.46,0.41 -6.66,1.28 -10.13,1.95 12.39,-10.04 27.94,-15.9 43.96,-15.63 z m -12.77,33.39 c 14.46,5.61 24.74,19.85 25.29,35.37 0.51,9.81 -2.97,19.74 -9.28,27.24 -9.71,11.8 -26.23,17.17 -40.98,12.93 10.36,-3.2 19,-10.43 23.59,-20.3 6.52,-13.55 3.94,-30.4 -6.3,-41.4 -6.46,-7.16 -15.45,-11.5 -25.06,-12.27 10.14,-5.1 22.18,-5.81 32.74,-1.57 z m -42.74,20.05 c 3.9,-1.47 8.49,-1.66 12.51,-0.58 9.22,2.56 15.81,11.29 15.38,20.92 -0.32,10.42 -8.98,19.36 -19.42,19.87 -9.56,0.76 -18.63,-5.55 -21.28,-14.76 -3.33,-10.38 2.69,-21.79 12.81,-25.45 z"
     fill-rule="evenodd"
     id="combined-path"
     style="display:inline" />
</svg>
