<?xml version="1.0" encoding="UTF-8"?>
<!-- Generator: visioncortex VTracer 0.6.12 -->
<svg version="1.1" xmlns="http://www.w3.org/2000/svg" width="90" height="13" viewBox="0 0 2000 280">
<path d="M0 0 C11.121660906677562 9.333915075654943 17.919496590255903 21.73756451278183 19.55859375 36.1875 C19.55859375 38.8275 19.55859375 41.4675 19.55859375 44.1875 C6.028593750000027 44.1875 -7.501406249999945 44.1875 -21.44140625 44.1875 C-21.771406249999927 42.207499999999996 -21.771406249999927 42.207499999999996 -23.44140625 32.1875 C-27.140847188881935 23.943031621920127 -31.65906675999304 18.787298698865868 -39.81640625 14.8125 C-47.718354334554306 11.928046558092134 -59.191512107517156 11.267991031843977 -67.00390625 14.625 C-79.5997859716017 22.702178476184073 -83.60809800568427 36.30991794527657 -86.64453125 50.07421875 C-91.18549173386964 72.5261602607334 -90.5802319542272 101.19868254932183 -78.55078125 121.35546875 C-73.39027011446115 128.81063464618876 -68.54864238363302 133.3660527732734 -59.44140625 135.1875 C-48.53582821207374 136.05704775053232 -39.15189265766571 134.0462673584171 -30.44140625 127.1875 C-23.882261423852015 120.47677829761744 -23.473353618950114 113.6699210551001 -21.44140625 104.1875 C-7.911406250000027 104.1875 5.618593749999945 104.1875 19.55859375 104.1875 C19.55859375 119.9607447539218 14.764298289315093 132.37913873290725 4.00390625 143.83203125 C-3.134170809133593 150.70784669194492 -11.102528302300243 155.00503865472038 -20.44140625 158.1875 C-21.5693359375 158.581953125 -22.697265625 158.97640625 -23.859375 159.3828125 C-33.678620160867695 162.24550782722548 -43.40588621402844 162.6115765904695 -53.56640625 162.6875 C-53.902549438476626 162.6927217102051 -53.902549438476626 162.6927217102051 -55.6036376953125 162.71914672851563 C-74.35598706887549 162.94630766214124 -92.40550899636492 157.7947947154592 -106.241455078125 144.649169921875 C-125.97563663412052 124.80837114322333 -130.69890051799348 97.94730529590186 -130.690185546875 71.044189453125 C-130.45753868495672 45.22038778019815 -123.58463923612248 21.282603715124026 -105.44140625 2.1875 C-79.3597870830406 -22.677329631786797 -27.82960183556588 -20.66069640272417 0 0 Z " fill="#ffffff" transform="translate(1327.44140625,74.8125)"/>
<path d="M0 0 C111.01293103448276 0 111.01293103448276 0 128.25 16.125 C137.02294981411117 25.524589086547692 138.68260253816285 36.535524979708725 138.27734375 48.94140625 C137.69558695638364 59.42992603532399 133.48340014855526 67.68213645970303 125.9296875 75.0078125 C119.59307555183467 80.25425465063151 112.07113267709411 84.23150006609126 104 86 C104.8572265625 86.2307421875 105.714453125 86.461484375 106.59765625 86.69921875 C115.09055516592429 89.12165778689837 121.60486869159689 91.20995782024258 126.75 98.625 C133.01668493912177 109.98173985360842 133.58702310427077 123.97238289280858 135.299560546875 136.609130859375 C136.95968390819942 148.76436406320022 139.42603107489984 159.56507768724958 144 171 C130.14 171 116.28 171 102 171 C100.56718220370145 166.70154661110433 99.63330692953866 163.39597372764635 99.03515625 159.02734375 C98.95591918945313 158.45878662109374 98.95591918945313 158.45878662109374 98.554931640625 155.58154296875 C98.47368041992188 154.98027587890624 98.47368041992188 154.98027587890624 98.0625 151.9375 C97.88775146484375 150.6962939453125 97.7130029296875 149.455087890625 97.532958984375 148.17626953125 C96.72265356582977 142.40279702549986 95.94504118909492 136.62835299379464 95.25 130.83984375 C92.77299124072634 110.69923640919194 92.77299124072634 110.69923640919194 88 106 C81.87667798483471 103.21822446629929 76.92308706775879 102.58625867999956 70.25 102.70703125 C69.80064086914062 102.70915367126466 69.80064086914062 102.70915367126466 67.526611328125 102.71989440917969 C64.68408988258807 102.73655415883599 61.842303549280714 102.7741816801479 59 102.8125 C57.06120822787402 102.82756329447017 55.12240523224334 102.8412488069497 53.18359375 102.853515625 C48.45545021038319 102.88641589904063 43.72784931036763 102.93810884697089 39 103 C39.00222061157226 103.83716049194337 39.00444122314453 104.67432098388673 39.00672912597656 105.53684997558594 C39.02673032064681 113.40967414214262 39.04197325160544 121.28248982921576 39.051812171936035 129.15533351898193 C39.05704041430948 133.20325742043744 39.064136987548665 137.251160405069 39.075439453125 141.299072265625 C39.08627043179235 145.20235971368285 39.09227727947376 149.10562698857615 39.09487724304199 153.0089282989502 C39.096731112494986 154.50133646980493 39.10035100288273 155.99374348371666 39.105730056762695 157.48614311218262 C39.11294330688389 159.56948139453988 39.113990825047075 161.65273531332886 39.113525390625 163.736083984375 C39.11574600219726 164.92411117553712 39.11796661376953 166.1121383666992 39.12025451660156 167.33616638183594 C39 170 39 170 38 171 C25.46 171 12.919999999999998 171 0 171 C0 114.57 0 58.14 0 0 Z M39 29 C37.86094680612693 31.278106387746135 37.87333010488128 32.5369636989885 37.87060546875 35.066650390625 C37.86745330810547 35.904143218994136 37.864301147460935 36.74163604736327 37.861053466796875 37.60450744628906 C37.86307769775391 38.50974655151367 37.865101928710935 39.41498565673828 37.8671875 40.34765625 C37.86623077392578 41.27468856811524 37.865274047851564 42.201720886230476 37.864288330078125 43.15684509277344 C37.8636072366091 45.11799181925477 37.86545660426415 47.07914079662493 37.86962890625 49.040283203125 C37.87498418159111 52.053599268923165 37.869678416452665 55.06676668093023 37.86328125 58.080078125 C37.86394192503933 59.981771164335655 37.86522286723091 61.883464110728426 37.8671875 63.78515625 C37.86516326904297 64.69241958618164 37.86313903808594 65.59968292236329 37.861053466796875 66.53443908691406 C37.88504622498773 72.88504622498772 37.88504622498773 72.88504622498772 39 74 C41.56113123942651 74.11358624682907 44.09420413562187 74.16418775117509 46.65625 74.16796875 C47.04439880371093 74.1696329498291 47.04439880371093 74.1696329498291 49.0086669921875 74.17805480957031 C50.65974331189598 74.18313144947422 52.31082994589092 74.18546290939602 53.9619140625 74.185302734375 C56.461767538599524 74.18746690148589 58.96116353335512 74.20555169228399 61.4609375 74.224609375 C63.067706833532434 74.22754780446226 64.67447825406873 74.22952958815785 66.28125 74.23046875 C67.01911743164062 74.23765426635742 67.75698486328125 74.24483978271485 68.5172119140625 74.25224304199219 C77.17981906906638 74.21506368703498 85.07132875562216 72.96974350474767 91.40625 66.58203125 C96.80941511132954 60.472056749107 97.45086458248127 55.15845272756276 97.31640625 47.234375 C96.75630485957845 41.50889412013535 94.71401671002549 37.86525347855715 90.875 33.6875 C80.60351647607098 27.658585757693828 69.3753637237277 28.6476462466577 57.875 28.8125 C56.04167764589485 28.827572399127632 54.208343322969775 28.84125628573264 52.375 28.853515625 C47.91636743576798 28.886322770277502 43.4583177634673 28.937964038541736 39 29 Z " fill="#ffffff" transform="translate(0,63)"/>
<path d="M0 0 C11.879999999999995 0 23.75999999999999 0 36 0 C36 33 36 66 36 100 C36.65999999999997 100 37.31999999999999 100 38 100 C38.24234375000003 99.291015625 38.48468750000001 98.58203125 38.734375 97.8515625 C40.18930321290509 94.57348350178796 42.014132426508354 92.18093976938192 44.25 89.375 C49.21593362239037 83.0652667354453 53.99161426883359 76.62840848617788 58.7373046875 70.15185546875 C59.86985124773361 68.6077442653492 61.02084418728259 67.07702334411425 62.188232421875 65.55908203125 C64 63.00000000000006 64 63.00000000000006 65.696533203125 59.76513671875 C70.34450608587389 51.75953959643559 70.34450608587389 51.75953959643559 75.14169311523438 50.387420654296875 C81.43873665890555 49.49978877320251 87.73658583899271 49.90733060161821 94.0625 50.25 C95.99657911758277 50.31026278848654 97.93083864174127 50.36500351614865 99.865234375 50.4140625 C104.58131134515781 50.54563291332008 109.28865762723728 50.75221852533511 114 51 C112.3738425992342 54.39121481571411 110.47416667696803 57.03739450238028 108.0625 59.9375 C107.66095703125006 60.42154296875 107.66095703125006 60.42154296875 105.62890625 62.87109375 C102.46401647182859 66.64631255507302 99.27948074871085 70.40493416526905 96.09033203125 74.15966796875 C92.43508506704234 78.46813882324534 88.84858392124733 82.82932083585928 85.28125 87.2109375 C81.22421193927391 92.17108334821648 77.10986355466082 97.08360789807796 73 102 C74.58410066292873 106.69829855709548 77.16323444246393 110.36876006219842 80 114.375 C83.63031705393507 119.5441380141105 87.18485641141865 124.75777037493003 90.6796875 130.01953125 C94.27368529319745 135.43013512906617 97.90448149403278 140.81359050174487 101.5703125 146.17578125 C102.49482657909834 147.53057513467888 103.41930580217809 148.8853928058386 104.34375 150.240234375 C105.75262473139082 152.3045442965771 107.16295068335035 154.36779902027536 108.5771484375 156.428466796875 C109.97493029883367 158.46638744784374 111.36688428930825 160.5081789978242 112.7578125 162.55078125 C113.18579132080072 163.17149002075195 113.61377014160155 163.7921987915039 114.05471801757813 164.4317169189453 C117 168.77253666967735 117 168.77253666967735 117 171 C111.0231428680338 171.32275334077912 105.05139995113075 171.55781435990053 99.06787109375 171.714111328125 C97.03604788771133 171.77927325332263 95.00482953684525 171.86784079492443 92.97509765625 171.980712890625 C76.17040085366102 172.89141372274176 76.17040085366102 172.89141372274176 71.061767578125 168.439453125 C68.95710165489567 165.04380802040907 67.46196039585845 161.71350170262056 66 158 C64.95134520699804 156.10503737239188 63.87331607652203 154.22592675513684 62.76171875 152.3671875 C61.73475571972392 150.53770466876588 60.71004660888184 148.70695494704384 59.6875 146.875 C58.567164069247895 144.8810844257057 57.44605720608513 142.88760184423296 56.32421875 140.89453125 C55.77040527343752 139.9104931640625 55.21659179687498 138.926455078125 54.64599609375 137.91259765625 C52.122800596277784 133.44779162171372 49.567445920600676 129.00197722667346 47 124.5625 C46.56776123046876 123.8127490234375 46.13552246093752 123.06299804687501 45.690185546875 122.29052734375 C45.276799316406255 121.57719238281248 44.86341308593751 120.863857421875 44.4375 120.12890625 C44.085585937500014 119.52119384765626 43.73367187500003 118.9134814453125 43.37109375 118.287353515625 C41.29735296632805 114.82779557363378 39.1377388815763 111.42038221052206 37 108 C36.670000000000016 128.79 36.34000000000003 149.58 36 171 C23.79000000000002 171 11.579999999999984 171 -1 171 C-1.0225451180329515 148.8520228924128 -1.04097805879843 126.7040550279821 -1.0518121719360352 104.55606937408447 C-1.0569756115954192 94.27313387741802 -1.064019218606063 83.99020599867711 -1.075439453125 73.707275390625 C-1.0853848297978743 64.74808050212593 -1.0918530771337487 55.78889112849518 -1.0940884947776794 46.829690873622894 C-1.095395851351725 42.082799288262464 -1.098483271602845 37.335923484686404 -1.1057300567626953 32.58903694152832 C-1.1124879680772324 28.126469738534468 -1.114617431917452 23.663924906727004 -1.113107681274414 19.201353073120117 C-1.1133841132365774 17.558575985442133 -1.1153905906018053 15.915798194131341 -1.1192054748535156 14.273025512695313 C-1.124139159133847 12.040026292713975 -1.1229995113932887 9.807112910193709 -1.1202545166015625 7.5741119384765625 C-1.1211763095855645 6.321395273208623 -1.1220981025695664 5.068678607940669 -1.1230478286743164 3.778000831604004 C-1 1 -1 1 0 0 Z " fill="#ffffff" transform="translate(419,63)"/>
<path d="M0 0 C5.7840187209621945 -0.12350082677305352 11.567272098159606 -0.21429190769429596 17.352294921875 -0.274658203125 C19.320529838714947 -0.29981914432996604 21.28867117425284 -0.33395164285405343 23.256591796875 -0.377197265625 C26.084056188380714 -0.4377806972554481 28.910286820151214 -0.46619307047453873 31.73828125 -0.48828125 C32.61962234497071 -0.5140876770019531 33.500963439941415 -0.5398941040039063 34.40901184082031 -0.5664825439453125 C36.70347614467232 -0.5675384669180445 38.760669187188114 -0.4976722397143476 41 0 C42.873046875 1.94677734375 42.873046875 1.94677734375 44 5 C44.25057662963866 5.660649566650392 44.50115325927732 6.3212991333007835 44.75932312011719 7.0019683837890625 C45.65513235257515 9.432741153391675 46.47812713827091 11.880776844746094 47.29296875 14.33984375 C47.60001739501956 15.249921874999998 47.90706604003901 16.159999999999997 48.223419189453125 17.09765625 C48.877851261930005 19.03871478508141 49.52975885538558 20.980625983015173 50.179351806640625 22.923309326171875 C51.86510878015213 27.9634343607338 53.5697285645291 32.997170574992 55.2734375 38.03125 C55.60376480102536 39.008596038818354 55.93409210205073 39.98594207763672 56.27442932128906 40.99290466308594 C58.53658287064263 47.672682522506165 60.86281795863715 54.32388332646508 63.3125 60.9375 C67.60802316024501 72.5566706354449 71.6122158106607 84.27388823534952 75.62646484375 95.99267578125 C77.10832067821991 100.31787860079737 78.5949375572576 104.64143948378484 80.08203125 108.96484375 C80.59464734449512 110.45524014173688 81.10726129755028 111.9456372700156 81.619873046875 113.43603515625 C81.74472579956057 113.79903717041014 81.74472579956057 113.79903717041014 82.37655639648438 115.63604736328125 C84.2521794706372 121.09030572831409 86.12599900910334 126.54518414956163 88 132 C90.79260212466374 129.20739787533628 91.55482549613544 125.87941310791433 92.765625 122.20703125 C93.03544189453123 121.40591415405274 93.30525878906246 120.60479705810548 93.583251953125 119.77940368652344 C94.16908191025448 118.03932098901751 94.75243463752179 116.29840279628272 95.3336181640625 114.5567626953125 C96.89592635387726 109.8781626666426 98.47862451315768 105.20649157433581 100.0625 100.53515625 C100.38808898925777 99.57427093505859 100.71367797851565 98.61338562011719 101.04913330078125 97.62338256835938 C104.33510664147752 87.95742627648258 107.77653466458207 78.34986684671992 111.25 68.75 C116.60634420814131 53.93052836348983 121.81377629549115 39.06929324122328 126.9169921875 24.16064453125 C128.62135049673293 19.186653847902363 130.33697469095773 14.216684307702664 132.0625 9.25 C132.34988037109372 8.415090332031255 132.63726074218744 7.580180664062496 132.933349609375 6.719970703125 C134.8849663592614 1.1150336407386305 134.8849663592614 1.1150336407386305 136 0 C138.73894084923688 -0.08858645718127178 141.4525327008172 -0.11523478883717075 144.19140625 -0.09765625 C145.01124496459965 -0.09624130249023466 145.8310836791992 -0.09482635498046932 146.67576599121094 -0.0933685302734375 C149.30471382353846 -0.08775289184898583 151.9335777348797 -0.07519779276874061 154.5625 -0.0625 C156.34049356524565 -0.057487012230772905 158.11848845996064 -0.0529237573482888 159.896484375 -0.048828125 C164.2643554513951 -0.037778385373762546 168.63216347893103 -0.020503312910342686 173 0 C172.3563743666001 5.504224058642791 170.52569716759695 10.265638205922926 168.515625 15.3828125 C168.16115295410157 16.298782043457038 167.80668090820313 17.214751586914062 167.44146728515625 18.158477783203125 C166.68488579520977 20.111697472537458 165.92576373647648 22.063934675310378 165.164306640625 24.0152587890625 C164.0224096923663 26.942551961831896 162.88789638064964 29.8725922101288 161.755859375 32.8037109375 C159.42729449255205 38.83008916362148 157.08896721484166 44.85265317240113 154.75 50.875 C153.4777510149189 54.15299598378745 152.20573250322286 57.43108134667007 150.9337158203125 60.70916748046875 C150.0980983132439 62.86255791889842 149.26240597812443 65.01591932211988 148.4266357421875 67.16925048828125 C145.27961038001035 75.27764304382072 142.1380669613569 83.38813654124871 139 91.5 C137.306838398202 95.87476680247414 135.6133809112324 100.24941902325651 133.9197998046875 104.6240234375 C133.25317460787164 106.34601319607 132.5865952435595 108.06802069777359 131.9200439453125 109.7900390625 C129.41546538531315 116.26039582942946 126.90987803776943 122.73036085262785 124.4033203125 129.199951171875 C123.56350817951625 131.36796885742513 122.72398112404107 133.53609699743322 121.884765625 135.704345703125 C120.69739795000123 138.77195120002708 119.50896198598775 141.83914099409148 118.3203125 144.90625 C118.14705947875973 145.35419921875 118.14705947875973 145.35419921875 117.27029418945313 147.62109375 C114.23845630022652 155.43887303181378 111.11477874899435 163.21305312751403 108 171 C94.13999999999999 171 80.27999999999997 171 66 171 C61.50036565299524 162.00073130599048 61.50036565299524 162.00073130599048 60.163330078125 158.4755859375 C59.85745468139646 157.67549102783204 59.55157928466792 156.87539611816408 59.23643493652344 156.05105590820313 C58.91735671997071 155.20405120849608 58.59827850341799 154.35704650878907 58.26953125 153.484375 C57.922053375244104 152.57251434326173 57.57457550048832 151.66065368652343 57.21656799316406 150.72116088867188 C56.46873960539142 148.75743551635318 55.72275767189126 146.79300615747573 54.97845458984375 144.82794189453125 C53.38289488700036 140.61590816921648 51.77797230200747 136.40746135993876 50.17364501953125 132.19876098632813 C49.3430709911521 130.01963349232125 48.51295636619716 127.84033084435481 47.68328857421875 125.66085815429688 C43.61260753314332 114.9698131702001 39.50056359752216 104.29496690771421 35.375 93.625 C35.02770843505857 92.72623138427736 34.68041687011714 91.82746276855468 34.322601318359375 90.90145874023438 C29.457780594876795 78.31341945437822 24.55953789102466 65.738677552171 19.64459228515625 53.170135498046875 C14.802006297205025 40.78508776046924 9.964827594930739 28.398190823624418 5.22821044921875 15.972137451171875 C4.519477718436406 14.113577790258802 3.80787480500328 12.256113425858175 3.09619140625 10.398681640625 C2.6828857421875227 9.309343261718752 2.2695800781250455 8.220004882812503 1.84375 7.09765625 C1.4847460937500045 6.154143066406249 1.125742187500009 5.210629882812498 0.755859375 4.238525390625 C0 2 0 2 0 0 Z " fill="#ffffff" transform="translate(542,63)"/>
<path d="M0 0 C0.7791577148437909 0.0020242309570335237 1.5583154296874682 0.004048461914059942 2.361083984375 0.006134033203125 C3.156354980468791 0.005177307128903408 3.951625976562468 0.004220581054688921 4.77099609375 0.00323486328125 C6.455648589082671 0.0025531021173890167 8.140303695446846 0.004407107288379564 9.824951171875 0.008575439453125 C12.412575950640303 0.01392378078465839 15.00002714300092 0.008630343431114795 17.587646484375 0.002227783203125 C19.220459369841137 0.0028885654215642376 20.853272146749873 0.004169729629850849 22.486083984375 0.006134033203125 C23.26524169921879 0.004109802246091476 24.044399414062468 0.002085571289065058 24.84716796875 0 C30.308632938757682 0.02399548758580039 30.308632938757682 0.02399548758580039 31.423583984375 1.138946533203125 C31.52056895949613 3.3285369099070437 31.54545125788661 5.521321830983808 31.543838500976563 7.7130584716796875 C31.544692925810864 8.408116797804837 31.54554735064505 9.103175123929972 31.54642766714096 9.819295823574066 C31.548084474023653 12.165536388583135 31.542557853332937 14.511706615264686 31.537109375 16.857940673828125 C31.536827520341262 18.532943708366474 31.536985202887195 20.207946866706607 31.537551879882813 21.882949829101563 C31.537839922884018 26.444739324971763 31.53194212182848 31.00650276428857 31.524977922439575 35.568286180496216 C31.51874548965725 40.33023653789974 31.518140673775974 45.09218742884201 31.516952514648438 49.85414123535156 C31.513838871164126 58.87810219092826 31.50562504043421 67.90205109598509 31.495603024959564 76.92600673437119 C31.484442910353778 87.1966913986476 31.47893169506949 97.46737662501388 31.473907589912415 107.73806583881378 C31.463442451863557 128.87170096629177 31.445096563702577 150.00531956455416 31.423583984375 171.13894653320313 C18.883583984375036 171.13894653320313 6.343583984374959 171.13894653320313 -6.576416015625 171.13894653320313 C-6.598961133657895 148.99096942561593 -6.617394074423487 126.84300156118522 -6.628228187561035 104.6950159072876 C-6.633391627220362 94.41208041062114 -6.640435234231063 84.12915253188024 -6.65185546875 73.84622192382813 C-6.661800845422931 64.88702703532906 -6.6682690927588055 55.927837661698305 -6.670504510402679 46.96863740682602 C-6.671811866976668 42.22174582146559 -6.674899287227845 37.47487001788953 -6.682146072387695 32.727983474731445 C-6.688903983702289 28.265416271737593 -6.691033447542395 23.80287143993013 -6.689523696899414 19.340299606323242 C-6.6898001288615205 17.697522518645258 -6.691806606226805 16.054744727334466 -6.695621490478516 14.411972045898438 C-6.700555174758847 12.1789728259171 -6.699415527018232 9.946059443396834 -6.6966705322265625 7.7130584716796875 C-6.697592325210621 6.460341806411748 -6.698514118194566 5.207625141143794 -6.699463844299316 3.916947364807129 C-6.482540504281815 -0.9804427432121585 -4.368946359546726 0.01919539880036325 0 0 Z " fill="#ffffff" transform="translate(834.576416015625,62.861053466796875)"/>
<path d="M0 0 C12.210000000000036 0 24.41999999999996 0 37 0 C37 56.43000000000001 37 112.86000000000001 37 171 C24.789999999999964 171 12.580000000000041 171 0 171 C0 114.57 0 58.14 0 0 Z " fill="#ffffff" transform="translate(885,63)"/>
<path d="M0 0 C11.88000000000011 0 23.75999999999999 0 36 0 C37 1 37 1 37.123047828674316 3.778000831604004 C37.12258693218223 4.404359164237974 37.12258693218223 4.404359164237974 37.12025451660156 7.5741119384765625 C37.12110894143575 8.269170264601712 37.121963366270165 8.964228590726847 37.12284368276596 9.680349290370941 C37.12450048964865 12.02658985538001 37.11897386895794 14.37276008206156 37.113525390625 16.718994140625 C37.113243535966376 18.39399717516335 37.11340121851208 20.06900033350348 37.11396789550781 21.744003295898438 C37.11425593850913 26.30579279176864 37.10835813745348 30.867556231085445 37.101393938064575 35.42933964729309 C37.09516150528225 40.19129000469661 37.09455668940109 44.953240895638885 37.09336853027344 49.71519470214844 C37.090254886789126 58.739155657725135 37.082041056059325 67.76310456278196 37.072019040584564 76.78706020116806 C37.060858925978664 87.05774486544448 37.055347710694605 97.32843009181076 37.050323605537415 107.59911930561066 C37.03985846748856 128.73275443308864 37.021512579327464 149.86637303135103 37 171 C24.789999999999964 171 12.579999999999927 171 0 171 C0 114.57 0 58.14 0 0 Z " fill="#ffffff" transform="translate(1499,63)"/>
<path d="M0 0 C11.88000000000011 0 23.75999999999999 0 36 0 C36 56.43000000000001 36 112.86000000000001 36 171 C23.789999999999964 171 11.579999999999927 171 -1 171 C-1.0225451180328946 148.8520228924128 -1.0409780587983732 126.7040550279821 -1.0518121719360352 104.55606937408447 C-1.0569756115953624 94.27313387741802 -1.064019218606063 83.99020599867711 -1.075439453125 73.707275390625 C-1.0853848297979312 64.74808050212593 -1.0918530771336918 55.78889112849518 -1.0940884947776794 46.829690873622894 C-1.0953958513516682 42.082799288262464 -1.098483271602845 37.335923484686404 -1.1057300567626953 32.58903694152832 C-1.1124879680771755 28.126469738534468 -1.1146174319173952 23.663924906727004 -1.113107681274414 19.201353073120117 C-1.1133841132366342 17.558575985442133 -1.115390590601919 15.915798194131341 -1.1192054748535156 14.273025512695313 C-1.124139159133847 12.040026292713975 -1.1229995113933455 9.807112910193709 -1.1202545166015625 7.5741119384765625 C-1.1211763095855076 6.321395273208623 -1.1220981025696801 5.068678607940669 -1.1230478286743164 3.778000831604004 C-1 1 -1 1 0 0 Z " fill="#ffffff" transform="translate(1556,63)"/>
<path d="M0 0 C13.895489625795904 11.386369929370602 22.147568817536012 25.10370185436892 26.201171875 42.6220703125 C26.428046875000007 43.591445312500014 26.654921875000014 44.5608203125 26.888671875 45.5595703125 C28.845002433783748 64.73160978858067 23.797783845081312 83.20513198190457 12.201171875 98.6220703125 C0.2380155672929618 112.56886108490374 -15.621289654402148 121.1274932245137 -33.798828125 123.6220703125 C-52.65633065643962 125.06202604973336 -69.89597318632903 120.26097230195441 -84.798828125 108.6220703125 C-85.4858984375 108.1116015625 -86.17296875 107.6011328125 -86.880859375 107.0751953125 C-99.22393275745804 97.23968910635989 -107.35020118586928 81.03336374687345 -109.798828125 65.6220703125 C-111.543125380384 45.193061880895755 -107.13554166553817 26.89486672432369 -94.423828125 10.6220703125 C-70.77191415372903 -16.29356602959372 -28.876899399312435 -22.12014389382729 0 0 Z M-64.798828125 0.6220703125 C-65.6521875 0.9494921874999989 -66.505546875 1.2769140624999977 -67.384765625 1.6142578125 C-80.71128289373064 7.373667483844159 -90.85890020990803 19.60429268961849 -96.611328125 32.6220703125 C-102.4664093619104 47.74127679596927 -102.3447130035037 62.99185771735375 -96.427734375 78.1298828125 C-89.69328376194773 92.82616592491627 -78.64959188634731 104.05327196098995 -63.673828125 110.4345703125 C-47.8637664188561 116.04519150551465 -31.097040992652012 115.90375241981036 -15.798828125 108.6220703125 C-5.345083631607906 102.71458132571584 -5.345083631607906 102.71458132571584 -3.798828125 99.6220703125 C-4.574843750000014 99.778046875 -5.350859374999999 99.9340234375 -6.150390625 100.0947265625 C-20.66097303910908 102.70940191396835 -33.89085296786851 101.79284638124733 -46.548828125 93.8095703125 C-47.985483679874704 92.77425803541058 -49.40344873733568 91.7123762598955 -50.798828125 90.6220703125 C-51.10691406249998 90.38294921875001 -51.10691406249998 90.38294921875001 -52.666015625 89.1728515625 C-60.7764696917838 82.01762875247073 -65.8148700726872 70.26339443380877 -66.798828125 59.6220703125 C-66.83363281250001 59.26628906249999 -66.83363281250001 59.26628906249999 -67.009765625 57.4658203125 C-67.62404768876621 44.42413957407871 -62.85782708989862 33.2081987153428 -54.611328125 23.4345703125 C-45.44827714196313 13.648492645707734 -34.49644769217548 9.417166314264932 -21.306640625 8.6064453125 C-15.379267582238043 8.632847865029007 -9.619996592005776 9.566056242773314 -3.798828125 10.6220703125 C-13.224519796344936 0.6558371833001502 -24.942887943729858 -3.352323374926357 -38.401611328125 -3.780029296875 C-47.82645895486391 -3.900381820510148 -56.02508031141065 -3.1098618560971545 -64.798828125 0.6220703125 Z M-42.798828125 25.6220703125 C-41.9880078125 25.575664062499982 -41.1771875 25.529257812499992 -40.341796875 25.4814453125 C-30.347173826231057 25.155660160735692 -22.252349698626233 26.47033861749989 -14.361328125 32.9345703125 C-7.721513587052613 39.31639614651897 -4.855433502839929 46.881772285844306 -4.486328125 55.9970703125 C-4.741208385836558 64.23819874621509 -7.268997961621636 71.25643682025469 -12.595703125 77.5791015625 C-19.93714390288679 84.38685604270353 -29.08609709229256 86.62324336232797 -38.798828125 87.6220703125 C-32.468587815398166 93.19268178494963 -24.59561418611031 93.0688359766379 -16.583984375 92.9267578125 C-6.567645957402561 92.12048908538691 1.2060345503845724 87.74806904965072 8.201171875 80.6220703125 C16.241151347078244 70.39342976191153 18.162038740093408 61.469790169958486 17.201171875 48.6220703125 C15.568018626356547 38.333204846046044 10.008736927183008 30.453286115783044 1.826171875 24.1845703125 C-11.178409469105702 15.461985264624218 -31.27762957443258 13.014965691649195 -42.798828125 25.6220703125 Z M-43.798828125 35.6220703125 C-43.515234375000006 35.76386718750001 -43.515234375000006 35.76386718750001 -42.080078125 36.4814453125 C-41.703671875 36.6696484375 -41.703671875 36.6696484375 -39.798828125 37.6220703125 C-39.06664062499999 37.97785156250001 -38.33445312499998 38.333632812500014 -37.580078125 38.7001953125 C-31.257900501237316 41.94788929730959 -28.096783713488776 44.728203547033615 -25.798828125 51.6220703125 C-25.19440966831411 57.75543137296842 -25.223697871350822 63.377703755141795 -28.310546875 68.8330078125 C-30.733892607982 71.7461110820689 -33.73332335877018 73.57684410410266 -36.970703125 75.4931640625 C-37.57398437500001 75.86570312500001 -38.17726562500002 76.23824218749999 -38.798828125 76.6220703125 C-38.798828125 76.95207031249998 -38.798828125 77.2820703125 -38.798828125 77.6220703125 C-32.20562632761204 78.17150379561565 -27.251508312642613 77.5480000476027 -21.798828125 73.6220703125 C-17.350224847818595 69.45951913074711 -14.324881387384437 65.226919510524 -13.427734375 59.0791015625 C-13.249136887794606 51.96671927790868 -14.337811495104546 46.3178326167415 -18.798828125 40.6220703125 C-26.809520594950698 33.964535354365296 -34.00048724464267 32.69975812011273 -43.798828125 35.6220703125 Z M-52.798828125 48.6220703125 C-55.809619300380916 51.632861487880916 -56.629448329361054 54.38757542152649 -56.798828125 58.6220703125 C-55.423418709178804 62.12936432284408 -54.004530802857175 65.5217823511453 -50.798828125 67.6220703125 C-44.00203668114972 69.15682967078877 -44.00203668114972 69.15682967078877 -39.986328125 67.3720703125 C-39.26445312499999 66.79457031250001 -38.542578125000006 66.2170703125 -37.798828125 65.6220703125 C-37.221328125000014 65.2301953125 -36.643828125 64.8383203125 -36.048828125 64.4345703125 C-33.98612171200364 61.44364601365527 -33.68090127612248 58.16681265228917 -33.798828125 54.6220703125 C-35.36300371299478 50.91744391988084 -37.30726966857094 48.617246573316606 -40.798828125 46.6220703125 C-45.79468507089385 45.10159211157577 -48.44017832043994 45.81316266067242 -52.798828125 48.6220703125 Z " fill="#ffffff" transform="translate(253.798828125,117.3779296875)"/>
<path d="M0 0 C0.9254663085937409 0.005639648437494316 1.8509326171874818 0.011279296875002842 2.804443359375 0.01708984375 C18.52945324475411 0.2943397343711496 32.13320370244253 4.857004843921459 43.62109375 15.90234375 C51.21874189252139 24.25840240229178 54.8125 34.033253976078555 54.8125 45.3125 C42.602499999999964 45.3125 30.392499999999984 45.3125 17.8125 45.3125 C16.82249999999999 41.682500000000005 15.832499999999982 38.05250000000001 14.8125 34.3125 C12.481961439588645 29.962161353898836 10.474248059730996 27.09785032074805 5.8125 25.3125 C0.4456074650138362 24.573936807111977 -3.7487772200347536 24.58005931201768 -8.625 27.0625 C-17.24787047950099 35.760135252444684 -16.440536763870398 51.64979338782672 -16.436279296875 62.91845703125 C-16.31012187337933 74.95514588304502 -15.577620098995396 88.24846180250768 -8.1875 98.3125 C-4.683328147653469 101.09990942800295 -2.0369617165722502 101.52413488218221 2.3125 101.3125 C6.805930338217763 100.58750955887578 9.997953981666683 98.93365371870937 12.8125 95.3125 C15.959022129877212 89.92710635463322 16.912995733673483 85.60902986428567 17.8125 79.3125 C30.022500000000036 79.3125 42.232500000000016 79.3125 54.8125 79.3125 C52.738059408179765 93.83358414274153 50.78217492960948 104.6845075388531 39.48828125 114.2890625 C27.72736745005875 122.96665980921881 15.43495566185453 125.67094187135731 1.0625 125.6875 C-0.040937499999984084 125.71199218750002 -1.1443749999999682 125.736484375 -2.28125 125.76171875 C-16.430190834690507 125.81153896420665 -28.56690440275389 120.69398856136223 -38.9375 111.0625 C-51.94551663027869 97.0275346883835 -56.72128583485744 78.56588880707432 -56.37109375 59.8203125 C-55.47623413061575 42.722781899850105 -49.76199868441614 25.26496935003874 -36.99609375 13.25 C-25.834883961872833 4.129802215962002 -14.352475039790534 -0.09160875834643889 0 0 Z " fill="#ffffff" transform="translate(349.1875,111.6875)"/>
<path d="M0 0 C10.395583555740018 10.643097449924284 12.718051919806612 22.72710074741326 12.830322265625 37.123046875 C12.840221862792987 37.924007873535146 12.850121459960974 38.72496887207032 12.860321044921875 39.550201416015625 C12.891632641130172 42.16885534130935 12.91657199662609 44.787527337918476 12.94140625 47.40625 C12.962002061726594 49.23328086490977 12.98299918114924 51.06030724605853 13.004379272460938 52.8873291015625 C13.059328812897206 57.67448270656632 13.108856631853087 62.46167736336727 13.1572265625 67.2489013671875 C13.207640751389931 72.14253350084476 13.26322240693139 77.03610670289873 13.318359375 81.9296875 C13.42560881344707 91.51557631961532 13.526648155863768 101.101515757367 13.625 110.6875 C2.7350000000000136 110.6875 -8.154999999999973 110.6875 -19.375 110.6875 C-20.262471926897433 107.13761229241027 -20.48045466927988 104.54569221950888 -20.4375 100.9375 C-20.42847656250001 99.95265625000002 -20.419453125000018 98.96781249999998 -20.41015625 97.953125 C-20.398554687499995 97.20546875 -20.38695312499999 96.45781249999999 -20.375 95.6875 C-21.034999999999968 95.6875 -21.694999999999936 95.6875 -22.375 95.6875 C-22.622499999999945 96.24437499999999 -22.870000000000005 96.80124999999998 -23.125 97.375 C-27.745373148019212 105.92269032383558 -35.81945485935216 110.20983496203212 -44.852294921875 113.08984375 C-49.44167316039193 114.17711733249197 -53.990985129826186 114.17395035765091 -58.6875 114.125 C-59.702072753906236 114.1174267578125 -60.71664550781247 114.10985351562499 -61.761962890625 114.10205078125 C-72.82316146100663 113.85886949197095 -82.25242656420494 111.57384646786363 -90.375 103.6875 C-97.2673156677397 96.12008279760704 -100.36021857921833 87.91624318093525 -100.375 77.6875 C-99.37260534091138 63.90912977689027 -93.59382435961527 54.138364321358324 -83.4375 45.0625 C-79.78820085783263 42.63785304743382 -75.7548708874699 41.0790687683197 -71.6875 39.5 C-71.05271728515629 39.249760742187505 -70.41793457031247 38.99952148437501 -69.763916015625 38.74169921875 C-59.55333599589028 34.98558732988354 -48.907509183912566 34.368025643936136 -38.125 34.0625 C-36.986757812499945 34.023828124999994 -35.848515625000005 33.98515624999999 -34.67578125 33.9453125 C-31.90900220814865 33.85231152380331 -29.14220882545783 33.766471388754354 -26.375 33.6875 C-26.26616404106869 31.311248230000018 -26.18733303994327 28.9400602378347 -26.125 26.5625 C-26.091484374999936 25.897343750000005 -26.057968749999986 25.23218750000001 -26.0234375 24.546875 C-25.9226992268882 19.409223071300232 -27.114020986088576 16.607675129424877 -30.375 12.6875 C-35.570863316145505 9.631109814032044 -40.4720810383742 8.768107312171537 -46.375 9.6875 C-50.68220022856974 11.109129937916919 -53.39329099504471 13.256280558173728 -55.75 17.125 C-57.375 20.68749999999997 -57.375 20.68749999999997 -58.375 25.6875 C-70.255 25.6875 -82.13499999999999 25.6875 -94.375 25.6875 C-93.35224655392506 14.437212093175788 -92.33523049376367 8.112478644569535 -84.25 0.375 C-62.626677555947936 -17.265078835937246 -22.024399880927376 -16.489770895305725 0 0 Z M-61.375 63.3125 C-64.02824068469215 67.78984365541805 -64.78290533665358 71.50470278134244 -64.375 76.6875 C-62.82374352858278 81.98535835852425 -60.140953235729285 85.80576083421022 -55.375 88.6875 C-49.59263046742501 91.06847568988383 -44.3953481967676 91.03310762676097 -38.375 89.6875 C-32.885813235793194 87.09826096027982 -29.908322340172504 83.0753993249321 -27.375 77.6875 C-25.51389980163617 72.37373805432662 -25.11813546482972 67.7933821900406 -25.25 62.25 C-25.25902343749999 61.518457031249994 -25.268046874999982 60.78691406249999 -25.27734375 60.033203125 C-25.30063847031238 58.25115702109929 -25.336498099138453 56.46928241209531 -25.375 54.6875 C-38.01797077057756 54.28400093285393 -51.41850362999742 54.600565676247754 -61.375 63.3125 Z " fill="#ffffff" transform="translate(797.375,123.3125)"/>
<path d="M0 0 C11.763077979801437 9.952021130893343 18.021605202654882 24.32387409716381 19.86328125 39.4609375 C20.350859929960052 46.61209147274869 20.23828125 53.79318079995005 20.23828125 60.9609375 C-6.491718750000018 61.290937499999984 -33.221718750000036 61.6209375 -60.76171875 61.9609375 C-59.354874643536164 80.24991088403041 -59.354874643536164 80.24991088403041 -54.01171875 85.8359375 C-47.04893694732402 90.3885256017497 -39.69598946069527 90.8488400668883 -31.69921875 89.3359375 C-23.857602141161237 87.13289000478596 -20.682975437028517 81.82313670230002 -16.76171875 74.9609375 C-5.8717187499999 74.9609375 5.018281249999973 74.9609375 16.23828125 74.9609375 C14.965068963747854 85.14663579001746 12.282631636003998 95.02674162586484 4.23828125 101.9609375 C-3.16014368775177 107.68953671045037 -10.75021346715971 110.66170569943995 -19.76171875 112.9609375 C-20.339621582031214 113.135283203125 -20.91752441406254 113.30962890625 -21.512939453125 113.4892578125 C-36.796963812950366 116.69506989188147 -57.747733957989 115.69122064215048 -71.76171875 108.9609375 C-72.23158203125001 108.74373046875002 -72.23158203125001 108.74373046875002 -74.609375 107.64453125 C-87.04639426817619 101.06022693155376 -93.7288988934589 89.7256984017423 -97.79296875 76.640625 C-102.64193376258868 56.57129758678559 -101.40767705194503 34.03537153081004 -91.5234375 15.7109375 C-83.42547210520706 3.070211030079264 -71.44951753760574 -5.823284872167363 -57.01171875 -9.8515625 C-37.6505832801771 -13.866015944572268 -16.196094392292025 -11.958078179316018 0 0 Z M-55.76171875 17.9609375 C-60.4956679922434 24.65376229075798 -60.76171875 28.363568358404848 -60.76171875 36.9609375 C-46.901718749999986 36.9609375 -33.04171874999997 36.9609375 -18.76171875 36.9609375 C-18.76171875 28.84251904876885 -19.37445257909428 24.79761527466991 -23.51171875 18.1484375 C-28.632298004000177 13.170096558610908 -33.24041302054741 12.716877670963953 -40.19921875 12.4609375 C-46.59587989823035 12.625116364614001 -51.33061999557856 13.09327729194095 -55.76171875 17.9609375 Z " fill="#ffffff" transform="translate(1035.76171875,123.0390625)"/>
<path d="M0 0 C13.63051518450743 11.492395155565049 19.644489420478067 27.518938113267552 21.15234375 44.93359375 C22.378566373881995 60.900577703527006 18.329244522405588 77.77280338499418 8.3671875 90.40625 C-2.5868985980418984 102.90588616478504 -16.48551310872108 110.73622715794727 -33.193359375 112.2333984375 C-36.6884324795069 112.36997145955291 -40.16260217464378 112.40153227309807 -43.66015625 112.37109375 C-44.89193603515628 112.36279541015625 -46.123715820312555 112.3544970703125 -47.392822265625 112.345947265625 C-64.37111059283006 112.03089086861354 -80.12951910385436 107.35727246400262 -92.71875 95.34765625 C-106.78580049042284 79.39639532691513 -109.68973950971713 61.43729377680614 -109.02685546875 40.7724609375 C-107.97605405965987 24.12570509975984 -99.63267464079968 11.027279319710601 -87.69140625 -0.0703125 C-81.98881733017402 -4.85346226427437 -75.86221244179433 -7.675677360661851 -68.84765625 -10.06640625 C-67.90792968749997 -10.387382812499993 -66.96820312499995 -10.708359375 -66 -11.0390625 C-44.02066466806559 -17.265092929994594 -18.51696090495443 -13.43686189124952 0 0 Z M-63.09765625 17.93359375 C-68.56627519659537 24.877398733960376 -70.52149703115401 34.25492236157939 -70.84765625 42.93359375 C-70.88761718749993 43.908124999999984 -70.92757812500008 44.88265625 -70.96875 45.88671875 C-71.23038611671313 58.62993666990869 -70.75213224946788 71.9941855878709 -62.0234375 82.03125 C-56.55524111191653 87.26309998231164 -51.96004111017828 88.55281737405755 -44.47265625 89.24609375 C-36.819244278811766 88.58631685593204 -30.158046847316655 86.73797417032284 -24.84765625 80.93359375 C-18.608589991394638 71.16658751786585 -17.471556860700503 60.93339198843796 -17.53515625 49.55859375 C-17.53862060546885 48.549982910156245 -17.542084960937473 47.54137207031249 -17.545654296875 46.502197265625 C-17.699808590299654 35.947312412519636 -19.00442197594157 25.58403373640141 -26.09765625 17.30859375 C-33.26237123973101 11.12088534977778 -38.72000574437925 10.149200554818549 -48.0234375 10.5546875 C-54.592496495601836 11.205554428062698 -58.497953853917124 13.299903405177702 -63.09765625 17.93359375 Z " fill="#ffffff" transform="translate(1463.84765625,125.06640625)"/>
<path d="M0 0 C13.127677743709228 11.068434176068592 18.488725632734713 25.302324655523705 20.27734375 41.99609375 C20.27734375 48.26609375000001 20.27734375 54.53609375000002 20.27734375 60.99609375 C-6.452656250000018 60.99609375 -33.182656250000036 60.99609375 -60.72265625 60.99609375 C-59.24646577380963 80.18656994047618 -59.24646577380963 80.18656994047618 -53.41015625 86.49609375 C-46.40963480401274 90.4033615338069 -39.23013524276416 90.90483905101303 -31.53515625 89.18359375 C-28.029414526573873 88.0916414099164 -25.667068416280244 87.13753881058051 -22.72265625 84.99609375 C-21.51513671875 82.53759765625003 -21.51513671875 82.53759765625003 -20.46484375 79.84765625 C-18.9404296875 77.1611328125 -18.9404296875 77.1611328125 -16.72265625 74.99609375 C-11.067467881895027 73.70723686610631 -5.604662794231217 74.05045341073532 0.15234375 74.37109375 C1.7147019310164069 74.42129389885105 3.2772143961892652 74.46691453743165 4.83984375 74.5078125 C8.656168233833796 74.61765077730348 12.465060171982486 74.78990434030527 16.27734375 74.99609375 C15.295379090462575 86.13455046239346 11.742914198940753 95.42820355671185 3.0546875 102.91015625 C-2.781570490915101 107.25728977730608 -8.754784053616731 109.97099590780047 -15.72265625 111.99609375 C-16.282753906250036 112.17462890625 -16.282753906250036 112.17462890625 -19.1171875 113.078125 C-25.54711834560385 114.6447587389701 -32.206379807697886 114.39120876637429 -38.78515625 114.37109375 C-39.13206008911129 114.370655670166 -39.13206008911129 114.370655670166 -40.887603759765625 114.36843872070313 C-57.0371509548138 114.30092603985997 -71.4091708062947 112.07056486798089 -84.03125 100.96484375 C-97.90928015540112 86.48342097914667 -100.12595199443354 67.5177098268631 -99.875 48.44140625 C-99.42877028551243 31.042135233865736 -93.1065933620257 15.987233884157547 -81.1953125 3.3203125 C-73.47127167966482 -3.940041825591436 -64.91580653833489 -7.489415595317951 -54.72265625 -10.00390625 C-53.97628906249997 -10.197265625 -53.229921874999945 -10.390625 -52.4609375 -10.58984375 C-34.36259178344176 -13.326540819836197 -14.96868047310113 -11.017120635151912 0 0 Z M-55.72265625 17.99609375 C-59.903609788345875 24.335356637049586 -60.72265625 29.250244312786947 -60.72265625 36.99609375 C-46.8626562500001 36.99609375 -33.00265624999997 36.99609375 -18.72265625 36.99609375 C-18.72265625 24.588326759708735 -18.72265625 24.588326759708735 -22.72265625 18.99609375 C-28.635718461267516 13.378684649295877 -33.73087352649418 12.543082405407006 -41.6416015625 12.564453125 C-47.4873389991526 12.729571904531866 -51.72947377838432 13.592003319563759 -55.72265625 17.99609375 Z " fill="#ffffff" transform="translate(1705.72265625,123.00390625)"/>
<path d="M0 0 C3.303873179839229 2.3390252600632238 5.8367502003461595 4.742369861381292 8.125 8.125 C8.454999999999927 4.4950000000000045 8.785000000000082 0.8649999999999949 9.125 -2.875 C14.376054422906691 -2.8996492769183817 19.627075452485315 -2.9178356801172214 24.878173828125 -2.929931640625 C26.665940208382608 -2.9349721824883943 28.453702445422095 -2.9418045411106704 30.241455078125 -2.950439453125 C32.8055116828607 -2.9625173035767887 35.36951397361918 -2.968230942644027 37.93359375 -2.97265625 C38.7377622985839 -2.9778175354003906 39.54193084716803 -2.9829788208007813 40.37046813964844 -2.9882965087890625 C42.289017148266566 -2.9884921499994874 44.20745368297503 -2.9370198259314577 46.125 -2.875 C47.702365763769876 -1.2976342362300244 47.25423773995067 0.2818177907176249 47.25871276855469 2.472198486328125 C47.260845260620044 2.941653900146491 47.260845260620044 2.941653900146491 47.271636962890625 5.3173828125 C47.27141036987314 5.836794433593752 47.27141036987314 5.836794433593752 47.270263671875 8.46533203125 C47.27362228393554 9.553290710449218 47.276980895996076 10.641249389648436 47.28044128417969 11.762176513671875 C47.28999489379862 15.385733260693996 47.291897435673036 19.009243912101056 47.29296875 22.6328125 C47.296181287266336 25.151357210083034 47.299545356985846 27.669901731072002 47.30305480957031 30.188446044921875 C47.3090591800667 35.48647569566435 47.310936403244796 40.78448813917004 47.310302734375 46.08251953125 C47.309705781421826 52.17220652954401 47.320176975460754 58.261803834463166 47.336046397686005 64.35146820545197 C47.35081522561677 70.23166185976342 47.35428739672784 76.11182079563483 47.35369300842285 81.99203109741211 C47.354866414390926 84.4804508251539 47.35925193132152 86.96887134247828 47.36702537536621 89.45727920532227 C47.49272915456709 133.9043240071869 47.49272915456709 133.9043240071869 33.3125 149.0625 C20.678468252880066 160.88143292472512 4.78453053523117 162.66051822398038 -11.784912109375 162.571044921875 C-14.174547066894547 162.56254606774297 -16.561771692265665 162.59139106483542 -18.951171875 162.623046875 C-35.47816029145906 162.69688554600793 -51.328204774001506 159.95655949207116 -63.82421875 148.41015625 C-70.33309534306204 141.1574080463023 -71.875 133.62669443185428 -71.875 124.125 C-60.325000000000045 124.125 -48.77500000000009 124.125 -36.875 124.125 C-35.555000000000064 127.095 -34.2349999999999 130.065 -32.875 133.125 C-25.97189793413486 138.14543786608374 -19.17980281040741 138.79334478653055 -10.875 138.125 C-4.376865331271574 136.8782034294147 0.7858794503788431 134.17158585662455 5.125 129.125 C8.831247032384226 122.2066722062161 9.291883109102855 115.48408948398924 9.25 107.8125 C9.253867187499964 107.08482421874999 9.257734374999927 106.3571484375 9.26171875 105.607421875 C9.251736111111086 100.25173611111114 9.251736111111086 100.25173611111114 8.125 99.125 C7.650624999999991 99.82625000000002 7.176249999999982 100.5275 6.6875 101.25 C-0.8300658044468037 109.68434212206225 -10.21376459148837 112.77541971606615 -21.1875 113.9375 C-34.89630393372772 114.65986086301842 -46.930567688916426 111.52557501986081 -57.76953125 102.79296875 C-69.63960588636292 91.49237295676102 -76.4052334699727 76.13803671676965 -77.11328125 59.7265625 C-77.53695306056329 40.83611939492462 -74.16915138606191 24.650387335143307 -61.625 9.75 C-46.036944657806316 -6.470003531742023 -19.67192274429658 -12.330704401917757 0 0 Z M-32.6875 26.25 C-40.398117639029124 38.16640907849967 -40.12703400262353 55.80291169428665 -37.625 69.19921875 C-35.568983191258894 77.21982598826645 -31.936769998891123 83.61681647392211 -24.875 88.125 C-18.93697872258963 90.90449932134106 -12.896396411916157 91.00193848949857 -6.75 88.9375 C-0.49452835507531745 86.28812377391426 3.3305488560165486 82.51797187073777 6.265625 76.48046875 C11.203469135926753 62.946286868346334 11.473718125721916 45.13823529805896 6.31640625 31.625 C3.5266364409437756 25.77105679411153 0.7522751503579457 21.461500540004465 -5.37109375 18.7890625 C-16.19926075726653 15.91731773988252 -25.54767521528288 17.535213865712933 -32.6875 26.25 Z " fill="#ffffff" transform="translate(1812.875,117.875)"/>
<path d="M0 0 C12.272841971153412 9.433317974721973 19.17650744826824 21.34559174597976 22.25 36.4375 C23.255761115402265 45.23790975977005 23 54.14230462472821 23 63 C-3.730000000000018 63 -30.460000000000036 63 -58 63 C-55.328806983511186 84.36954413191074 -55.328806983511186 84.36954413191074 -50.32421875 88.32421875 C-43.274926061798396 92.6262496196733 -36.24849309851447 92.74461203355355 -28.3125 91.25 C-24.32559799933597 90.24472625369191 -21.848555159448097 89.08593475606867 -19 86 C-17.34999999999991 83.03 -15.700000000000045 80.06 -14 77 C-3.1099999999999 77 7.779999999999973 77 19 77 C17.927227500751542 87.72772499248356 15.477486734848753 96.96417312460665 7.23046875 104.41015625 C-6.065946106266438 113.88763584106897 -20.214578238709237 116.56145881818264 -36.3125 116.4375 C-36.654076385498 116.43597930908203 -36.654076385498 116.43597930908203 -38.382659912109375 116.42828369140625 C-52.855315644208076 116.33286378195987 -64.96314835036674 114.65290656322694 -77 106 C-78.05187500000011 105.2575 -79.10374999999999 104.51499999999999 -80.1875 103.75 C-93.72823835694453 90.51016693987651 -96.85161371716663 72.8443225523938 -97.3125 54.5625 C-96.99391893590155 35.52728142012293 -91.40475755736043 17.87961443786608 -77.5 4.3125 C-73.69138600412339 1.1963612761010438 -69.48175620910592 -1.0656034788313633 -65.125 -3.3125 C-64.47724609374995 -3.6504760742187443 -63.82949218749991 -3.988452148437503 -63.162109375 -4.336669921875 C-45.17821483978696 -13.152260726189354 -16.400493658486766 -12.053746279075739 0 0 Z M-54.375 21.8125 C-57.464995336346874 27.873644698218925 -58 32.09782626447719 -58 39 C-43.809999999999945 39 -29.61999999999989 39 -15 39 C-15.872703037608971 30.272969623911166 -16.624580964224833 25.137610430950275 -21.9375 18.625 C-31.089473221114986 11.414354431848778 -46.98712900179862 13.063705396866737 -54.375 21.8125 Z " fill="#ffffff" transform="translate(1977,121)"/>
<path d="M0 0 C13.200000000000045 0 26.40000000000009 0 40 0 C53.32682593906202 38.91433174206085 53.32682593906202 38.91433174206085 57.53125 51.6328125 C57.80620300292958 52.463572998046885 58.081156005859384 53.29433349609374 58.36444091796875 54.1502685546875 C59.67151715274895 58.10235918946452 60.97296115485233 62.05618680933219 62.2666015625 66.0126953125 C62.734886364775775 67.43298876880104 63.203303232788585 68.85323869102066 63.671875 70.2734375 C64.07502929687507 71.5049755859375 64.47818359374992 72.736513671875 64.8935546875 74.00537109375 C66 77 66 77 68 80 C68.19577636718759 79.41005249023436 68.19577636718759 79.41005249023436 69.1865234375 76.424560546875 C77.65936311713585 50.902958467409064 86.23696842322715 25.423610130143402 95 0 C107.21000000000004 0 119.42000000000007 0 132 0 C130.07835120629557 5.764946381113461 128.12782455965112 11.47172579789924 125.98828125 17.15234375 C125.70346893310557 17.912296447753903 125.41865661621091 18.672249145507806 125.12521362304688 19.455230712890625 C124.18948415493696 21.950016413447003 123.25113973141674 24.443807928286276 122.3125 26.9375 C121.64297459584532 28.719315742299273 120.97345984357162 30.501135487123292 120.303955078125 32.282958984375 C112.93453475898013 51.88012913231239 105.47826406599779 71.444152058084 98 91 C97.62558776855462 91.97910339355468 97.25117553710948 92.95820678710936 96.86541748046875 93.96697998046875 C87.93389289945003 117.32040153074365 78.98529729925463 140.66721185193535 70 164 C57.789999999999964 164 45.57999999999993 164 33 164 C34.33662514779917 157.98518683490397 35.71473267581791 152.58333015895192 37.85546875 146.89453125 C38.40087208864088 145.40186854210572 38.945779680995656 143.90902461610335 39.490234375 142.416015625 C40.34046623636459 140.10331597775863 41.1949985267463 137.7924555782097 42.058349609375 135.484619140625 C42.89905369844678 133.2297978872772 43.722103523244414 130.96913686492852 44.54296875 128.70703125 C44.80434127807621 128.02252395629884 45.06571380615242 127.33801666259765 45.33500671386719 126.63276672363281 C47.88096841359902 119.54359680614289 46.1318246499543 114.88449760866683 43.40234375 108.12890625 C43.269507369995154 107.79792434692382 43.269507369995154 107.79792434692382 42.59727478027344 106.12295532226563 C41.71665689009501 103.93367412643744 40.827197665325684 101.74810532453867 39.9375 99.5625 C39.31029217378568 98.00903892705344 38.68351051576292 96.4554057294821 38.05712890625 94.901611328125 C32.712167555569295 81.66607259654381 27.280142833903483 68.4657940333606 21.850341796875 55.264892578125 C17.60669954507307 44.94388133534224 13.399506471919949 34.60923084943096 9.25 24.25 C8.772885742187555 23.06172607421874 8.29577148437511 21.873452148437508 7.80419921875 20.649169921875 C7.358344726562564 19.532600097656257 6.9124902343749 18.416030273437514 6.453125 17.265625 C6.073173828124936 16.314619140624984 5.6932226562501 15.363613281249997 5.3017578125 14.3837890625 C3.4670326309794746 9.614604700932887 1.7462815039268662 4.802274135799081 0 0 Z " fill="#ffffff" transform="translate(1054,115)"/>
</svg>
